# xmcd
#
# Track frame offsets:
#	150
#	53413
#	64253
#	75017
#	84879
#	97264
#	106556
#	133285
#	147049
#	156926
#
# Disc length: 2226 seconds
#
# Revision: 0
# Processed by: cddbd v1.5PL3 Copyright (c) Steve Scherf et al.
# Submitted via: audiograbber 1.82.02
#
DISCID=7208b00a
DTITLE=Various Artist - Soul Classics [Columbia River]
DYEAR=1900
DGENRE=Oldies
TTITLE0=It's a Man's Man's Man's World
TTITLE1=Tutti Frutti
TTITLE2=Ain't That a Shame
TTITLE3=She's Got It
TTITLE4=Promised Land
TTITLE5=Long Tall Sally
TTITLE6=Georgia on My Mind
TTITLE7=Blueberry Hill
TTITLE8=School Days
TTITLE9=Lucille
EXTD=
EXTT0=
EXTT1=
EXTT2=
EXTT3=
EXTT4=
EXTT5=
EXTT6=
EXTT7=
EXTT8=
EXTT9=
PLAYORDER=
